# Blender v2.74 (sub 1) OBJ File: 'Survival_Barrel.blend'
# www.blender.org
mtllib Barrel.mtl
o Cylinder.001
v 0.000000 0.143105 -0.500000
v 0.000000 0.243105 -0.500000
v 0.154509 0.143105 -0.475528
v 0.154509 0.243105 -0.475528
v 0.293893 0.143105 -0.404509
v 0.293893 0.243105 -0.404509
v 0.404509 0.143105 -0.293893
v 0.404509 0.243105 -0.293893
v 0.475528 0.143105 -0.154509
v 0.475528 0.243105 -0.154509
v 0.500000 0.143105 -0.000000
v 0.500000 0.243105 -0.000000
v 0.475528 0.143105 0.154508
v 0.475528 0.243105 0.154508
v 0.404509 0.143105 0.293892
v 0.404509 0.243105 0.293892
v 0.293893 0.143105 0.404508
v 0.293893 0.243105 0.404508
v 0.154508 0.143105 0.475528
v 0.154508 0.243105 0.475528
v -0.000000 0.143105 0.500000
v -0.000000 0.243105 0.500000
v -0.154509 0.143105 0.475528
v -0.154509 0.243105 0.475528
v -0.293893 0.143105 0.404508
v -0.293893 0.243105 0.404508
v -0.404509 0.143105 0.293892
v -0.404509 0.243105 0.293892
v -0.475528 0.143105 0.154508
v -0.475528 0.243105 0.154508
v -0.500000 0.143105 -0.000001
v -0.500000 0.243105 -0.000001
v -0.475528 0.143105 -0.154509
v -0.475528 0.243105 -0.154509
v -0.404508 0.143105 -0.293893
v -0.404508 0.243105 -0.293893
v -0.293892 0.143105 -0.404509
v -0.293892 0.243105 -0.404509
v -0.154508 0.143105 -0.475529
v -0.154508 0.243105 -0.475529
v 0.000000 0.143105 -0.475683
v 0.146994 0.143105 -0.452402
v 0.146994 0.243105 -0.452402
v 0.000000 0.243105 -0.475683
v 0.279599 0.143105 -0.384836
v 0.279599 0.243105 -0.384836
v 0.384836 0.143105 -0.279600
v 0.384836 0.243105 -0.279600
v 0.452401 0.143105 -0.146994
v 0.452401 0.243105 -0.146994
v 0.475683 0.143105 -0.000000
v 0.475683 0.243105 -0.000000
v 0.452401 0.143105 0.146994
v 0.452401 0.243105 0.146994
v 0.384836 0.143105 0.279599
v 0.384836 0.243105 0.279599
v 0.279599 0.143105 0.384835
v 0.279599 0.243105 0.384835
v 0.146994 0.143105 0.452401
v 0.146994 0.243105 0.452401
v -0.000000 0.143105 0.475683
v -0.000000 0.243105 0.475683
v -0.146994 0.143105 0.452401
v -0.146994 0.243105 0.452401
v -0.279600 0.143105 0.384835
v -0.279600 0.243105 0.384835
v -0.384836 0.143105 0.279599
v -0.384836 0.243105 0.279599
v -0.452401 0.143105 0.146994
v -0.452401 0.243105 0.146994
v -0.475683 0.143105 -0.000001
v -0.475683 0.243105 -0.000001
v -0.452401 0.143105 -0.146995
v -0.452401 0.243105 -0.146995
v -0.384835 0.143105 -0.279600
v -0.384835 0.243105 -0.279600
v -0.279599 0.143105 -0.384836
v -0.279599 0.243105 -0.384836
v -0.146993 0.143105 -0.452402
v -0.146993 0.243105 -0.452402
v 0.000000 -0.242248 -0.500000
v 0.000000 -0.142248 -0.500000
v 0.154509 -0.242248 -0.475528
v 0.154509 -0.142248 -0.475528
v 0.293893 -0.242248 -0.404509
v 0.293893 -0.142248 -0.404509
v 0.404509 -0.242248 -0.293893
v 0.404509 -0.142248 -0.293893
v 0.475528 -0.242248 -0.154509
v 0.475528 -0.142248 -0.154509
v 0.500000 -0.242248 -0.000000
v 0.500000 -0.142248 -0.000000
v 0.475528 -0.242248 0.154508
v 0.475528 -0.142248 0.154508
v 0.404509 -0.242248 0.293892
v 0.404509 -0.142248 0.293892
v 0.293893 -0.242248 0.404508
v 0.293893 -0.142248 0.404508
v 0.154508 -0.242248 0.475528
v 0.154508 -0.142248 0.475528
v -0.000000 -0.242248 0.500000
v -0.000000 -0.142248 0.500000
v -0.154509 -0.242248 0.475528
v -0.154509 -0.142248 0.475528
v -0.293893 -0.242248 0.404508
v -0.293893 -0.142248 0.404508
v -0.404509 -0.242248 0.293892
v -0.404509 -0.142248 0.293892
v -0.475528 -0.242248 0.154508
v -0.475528 -0.142248 0.154508
v -0.500000 -0.242248 -0.000001
v -0.500000 -0.142248 -0.000001
v -0.475528 -0.242248 -0.154509
v -0.475528 -0.142248 -0.154509
v -0.404508 -0.242248 -0.293893
v -0.404508 -0.142248 -0.293893
v -0.293892 -0.242248 -0.404509
v -0.293892 -0.142248 -0.404509
v -0.154508 -0.242248 -0.475529
v -0.154508 -0.142248 -0.475529
v 0.000000 -0.242248 -0.475683
v 0.146994 -0.242248 -0.452402
v 0.146994 -0.142248 -0.452402
v 0.000000 -0.142248 -0.475683
v 0.279599 -0.242248 -0.384836
v 0.279599 -0.142248 -0.384836
v 0.384836 -0.242248 -0.279600
v 0.384836 -0.142248 -0.279600
v 0.452401 -0.242248 -0.146994
v 0.452401 -0.142248 -0.146994
v 0.475683 -0.242248 -0.000000
v 0.475683 -0.142248 -0.000000
v 0.452401 -0.242248 0.146994
v 0.452401 -0.142248 0.146994
v 0.384836 -0.242248 0.279599
v 0.384836 -0.142248 0.279599
v 0.279599 -0.242248 0.384835
v 0.279599 -0.142248 0.384835
v 0.146994 -0.242248 0.452401
v 0.146994 -0.142248 0.452401
v -0.000000 -0.242248 0.475683
v -0.000000 -0.142248 0.475683
v -0.146994 -0.242248 0.452401
v -0.146994 -0.142248 0.452401
v -0.279600 -0.242248 0.384835
v -0.279600 -0.142248 0.384835
v -0.384836 -0.242248 0.279599
v -0.384836 -0.142248 0.279599
v -0.452401 -0.242248 0.146994
v -0.452401 -0.142248 0.146994
v -0.475683 -0.242248 -0.000001
v -0.475683 -0.142248 -0.000001
v -0.452401 -0.242248 -0.146995
v -0.452401 -0.142248 -0.146995
v -0.384835 -0.242248 -0.279600
v -0.384835 -0.142248 -0.279600
v -0.279599 -0.242248 -0.384836
v -0.279599 -0.142248 -0.384836
v -0.146993 -0.242248 -0.452402
v -0.146993 -0.142248 -0.452402
vt 0.377230 0.720658
vt 0.356638 0.720658
vt 0.356638 0.692704
vt 0.377230 0.692704
vt 0.356638 0.848886
vt 0.377230 0.848886
vt 0.377230 0.876840
vt 0.356638 0.876840
vt 0.367251 0.616401
vt 0.390270 0.616401
vt 0.390270 0.653137
vt 0.367251 0.653137
vt 0.390270 0.691763
vt 0.367251 0.691763
vt 0.390270 0.728499
vt 0.367251 0.728499
vt 0.390270 0.759748
vt 0.367251 0.759748
vt 0.344231 0.934345
vt 0.321211 0.934345
vt 0.321211 0.903095
vt 0.344231 0.903095
vt 0.321211 0.866359
vt 0.344231 0.866359
vt 0.321211 0.827733
vt 0.344231 0.827733
vt 0.321211 0.790997
vt 0.344231 0.790997
vt 0.321211 0.759748
vt 0.344231 0.759748
vt 0.336045 0.848886
vt 0.315453 0.848886
vt 0.315453 0.820933
vt 0.336045 0.820933
vt 0.315453 0.788071
vt 0.336045 0.788071
vt 0.315453 0.753519
vt 0.336045 0.753519
vt 0.315453 0.720658
vt 0.336045 0.720658
vt 0.315453 0.692704
vt 0.336045 0.692704
vt 0.356638 0.820933
vt 0.377230 0.820933
vt 0.356638 0.788071
vt 0.377230 0.788071
vt 0.377230 0.753519
vt 0.356638 0.753519
vt 0.464291 0.765131
vt 0.459720 0.765907
vt 0.450965 0.737008
vt 0.455090 0.734754
vt 0.261431 0.848628
vt 0.265767 0.846259
vt 0.283275 0.872106
vt 0.279833 0.875797
vt 0.276285 0.765131
vt 0.280856 0.765907
vt 0.280856 0.796294
vt 0.276285 0.797070
vt 0.434314 0.712425
vt 0.437587 0.708914
vt 0.455090 0.827447
vt 0.450965 0.825193
vt 0.459720 0.796294
vt 0.464291 0.797070
vt 0.449429 0.816690
vt 0.444622 0.815873
vt 0.444622 0.783925
vt 0.449429 0.783108
vt 0.289611 0.825193
vt 0.285486 0.827447
vt 0.251756 0.816690
vt 0.256563 0.815873
vt 0.411395 0.694564
vt 0.413497 0.690140
vt 0.439754 0.848628
vt 0.435418 0.846259
vt 0.251756 0.783108
vt 0.256563 0.783925
vt 0.306262 0.849776
vt 0.302989 0.853287
vt 0.384453 0.685174
vt 0.385177 0.680270
vt 0.421352 0.875797
vt 0.417910 0.872106
vt 0.305162 0.704262
vt 0.307372 0.708913
vt 0.283275 0.727692
vt 0.279834 0.724001
vt 0.334938 0.693885
vt 0.335700 0.699041
vt 0.261431 0.751170
vt 0.265767 0.753540
vt 0.329181 0.867637
vt 0.327079 0.872061
vt 0.396023 0.895536
vt 0.393813 0.890885
vt 0.356124 0.685174
vt 0.355399 0.680270
vt 0.366247 0.693885
vt 0.365485 0.699041
vt 0.356123 0.877027
vt 0.355399 0.881931
vt 0.366247 0.905913
vt 0.365485 0.900757
vt 0.329181 0.694564
vt 0.327080 0.690140
vt 0.396023 0.704262
vt 0.393813 0.708913
vt 0.384453 0.877027
vt 0.385177 0.881931
vt 0.334939 0.905913
vt 0.335700 0.900757
vt 0.306262 0.712425
vt 0.302989 0.708914
vt 0.421352 0.724001
vt 0.417910 0.727692
vt 0.411395 0.867637
vt 0.413497 0.872061
vt 0.289611 0.737008
vt 0.285486 0.734754
vt 0.305162 0.895536
vt 0.307372 0.890885
vt 0.434314 0.849776
vt 0.437587 0.853287
vt 0.439754 0.751170
vt 0.435418 0.753540
vt 0.367251 0.790998
vt 0.336045 0.876840
vt 0.344231 0.616401
vt 0.344231 0.653137
vt 0.344231 0.691763
vt 0.344231 0.728499
vt 0.321211 0.728499
vt 0.321211 0.691763
vt 0.321211 0.653137
vt 0.321211 0.616401
vt 0.315453 0.876840
vt 0.367251 0.934344
vt 0.367251 0.903095
vt 0.367251 0.866359
vt 0.367251 0.827733
vt 0.450032 0.768334
vt 0.445011 0.769187
vt 0.435396 0.737447
vt 0.439926 0.734972
vt 0.446755 0.723918
vt 0.442078 0.726474
vt 0.423196 0.698598
vt 0.426908 0.694617
vt 0.243548 0.768334
vt 0.248569 0.769187
vt 0.248569 0.802560
vt 0.243548 0.803413
vt 0.417109 0.710448
vt 0.420703 0.706592
vt 0.439926 0.836775
vt 0.435396 0.834299
vt 0.445011 0.802560
vt 0.450032 0.803413
vt 0.243996 0.758364
vt 0.249180 0.759245
vt 0.249180 0.793702
vt 0.243996 0.794583
vt 0.258183 0.834299
vt 0.253654 0.836775
vt 0.457190 0.758365
vt 0.452005 0.759245
vt 0.391937 0.690832
vt 0.394245 0.685973
vt 0.254430 0.723918
vt 0.259107 0.726474
vt 0.457190 0.794583
vt 0.452005 0.793703
vt 0.276471 0.861299
vt 0.272877 0.865154
vt 0.362347 0.680519
vt 0.363142 0.675133
vt 0.274278 0.694617
vt 0.277989 0.698598
vt 0.399590 0.879620
vt 0.397207 0.874604
vt 0.423196 0.854350
vt 0.426908 0.858331
vt 0.367476 0.890812
vt 0.366655 0.885252
vt 0.446755 0.829029
vt 0.442078 0.826473
vt 0.301643 0.880915
vt 0.299335 0.885773
vt 0.301595 0.673328
vt 0.303978 0.678344
vt 0.331233 0.680519
vt 0.330438 0.675133
vt 0.333709 0.890812
vt 0.334530 0.885252
vt 0.331233 0.891227
vt 0.330438 0.896613
vt 0.333709 0.662135
vt 0.334530 0.667696
vt 0.301643 0.690832
vt 0.299335 0.685973
vt 0.301595 0.879620
vt 0.303978 0.874604
vt 0.362346 0.891227
vt 0.363142 0.896613
vt 0.367476 0.662135
vt 0.366655 0.667696
vt 0.276471 0.710448
vt 0.272877 0.706592
vt 0.274278 0.858331
vt 0.277989 0.854350
vt 0.391937 0.880915
vt 0.394245 0.885773
vt 0.258183 0.737447
vt 0.253654 0.734972
vt 0.399590 0.673328
vt 0.397207 0.678344
vt 0.417108 0.861299
vt 0.420703 0.865154
vt 0.254430 0.829029
vt 0.259107 0.826473
vn 0.000000 0.000000 -1.000000
vn 0.309000 0.000000 -0.951100
vn 0.587800 0.000000 -0.809000
vn 0.809000 0.000000 -0.587800
vn 0.951100 0.000000 -0.309000
vn 1.000000 0.000000 0.000000
vn 0.951100 0.000000 0.309000
vn 0.809000 0.000000 0.587800
vn 0.587800 0.000000 0.809000
vn 0.309000 0.000000 0.951100
vn -0.000000 0.000000 1.000000
vn -0.309000 0.000000 0.951100
vn -0.587800 0.000000 0.809000
vn -0.809000 0.000000 0.587800
vn -0.951100 0.000000 0.309000
vn -1.000000 0.000000 -0.000000
vn -0.951100 0.000000 -0.309000
vn -0.809000 0.000000 -0.587800
vn -0.587800 0.000000 -0.809000
vn -0.309000 0.000000 -0.951100
vn 0.000000 -1.000000 0.000000
vn 0.000000 1.000000 0.000000
usemtl Material.001
s 1
f 1/1/1 2/2/1 4/3/2 3/4/2
f 3/5/2 4/6/2 6/7/3 5/8/3
f 5/9/3 6/10/3 8/11/4 7/12/4
f 7/12/4 8/11/4 10/13/5 9/14/5
f 9/14/5 10/13/5 12/15/6 11/16/6
f 11/16/6 12/15/6 14/17/7 13/18/7
f 13/19/7 14/20/7 16/21/8 15/22/8
f 15/22/8 16/21/8 18/23/9 17/24/9
f 17/24/9 18/23/9 20/25/10 19/26/10
f 19/26/10 20/25/10 22/27/11 21/28/11
f 21/28/11 22/27/11 24/29/12 23/30/12
f 23/31/12 24/32/12 26/33/13 25/34/13
f 25/34/13 26/33/13 28/35/14 27/36/14
f 27/36/14 28/35/14 30/37/15 29/38/15
f 29/38/15 30/37/15 32/39/16 31/40/16
f 31/40/16 32/39/16 34/41/17 33/42/17
f 33/6/17 34/5/17 36/43/18 35/44/18
f 35/44/18 36/43/18 38/45/19 37/46/19
f 39/47/20 40/48/20 2/2/1 1/1/1
f 37/46/19 38/45/19 40/48/20 39/47/20
f 3/49/21 42/50/21 41/51/21 1/52/21
f 12/53/22 52/54/22 54/55/22 14/56/22
f 25/57/21 65/58/21 63/59/21 23/60/21
f 1/52/21 41/51/21 79/61/21 39/62/21
f 7/63/21 47/64/21 45/65/21 5/66/21
f 28/67/22 68/68/22 70/69/22 30/70/22
f 23/60/21 63/59/21 61/71/21 21/72/21
f 10/73/22 50/74/22 52/54/22 12/53/22
f 39/62/21 79/61/21 77/75/21 37/76/21
f 5/66/21 45/65/21 42/50/21 3/49/21
f 26/77/22 66/78/22 68/68/22 28/67/22
f 8/79/22 48/80/22 50/74/22 10/73/22
f 21/72/21 61/71/21 59/81/21 19/82/21
f 37/76/21 77/75/21 75/83/21 35/84/21
f 24/85/22 64/86/22 66/78/22 26/77/22
f 2/87/22 44/88/22 43/89/22 4/90/22
f 40/91/22 80/92/22 44/88/22 2/87/22
f 6/93/22 46/94/22 48/80/22 8/79/22
f 19/82/21 59/81/21 57/95/21 17/96/21
f 22/97/22 62/98/22 64/86/22 24/85/22
f 35/84/21 75/83/21 73/99/21 33/100/21
f 38/101/22 78/102/22 80/92/22 40/91/22
f 17/96/21 57/95/21 55/103/21 15/104/21
f 4/90/22 43/89/22 46/94/22 6/93/22
f 20/105/22 60/106/22 62/98/22 22/97/22
f 33/100/21 73/99/21 71/107/21 31/108/21
f 36/109/22 76/110/22 78/102/22 38/101/22
f 15/104/21 55/103/21 53/111/21 13/112/21
f 18/113/22 58/114/22 60/106/22 20/105/22
f 31/108/21 71/107/21 69/115/21 29/116/21
f 34/117/22 74/118/22 76/110/22 36/109/22
f 13/112/21 53/111/21 51/119/21 11/120/21
f 29/116/21 69/115/21 67/121/21 27/122/21
f 16/123/22 56/124/22 58/114/22 18/113/22
f 11/120/21 51/119/21 49/125/21 9/126/21
f 32/127/22 72/128/22 74/118/22 34/117/22
f 14/56/22 54/55/22 56/124/22 16/123/22
f 27/122/21 67/121/21 65/58/21 25/57/21
f 30/70/22 70/69/22 72/128/22 32/127/22
f 9/126/21 49/125/21 47/64/21 7/63/21
f 81/129/1 82/28/1 84/30/2 83/18/2
f 83/31/2 84/5/2 86/8/3 85/130/3
f 85/131/3 86/9/3 88/12/4 87/132/4
f 87/132/4 88/12/4 90/14/5 89/133/5
f 89/133/5 90/14/5 92/16/6 91/134/6
f 91/134/6 92/16/6 94/18/7 93/30/7
f 93/30/7 94/29/7 96/135/8 95/134/8
f 95/134/8 96/135/8 98/136/9 97/133/9
f 97/133/9 98/136/9 100/137/10 99/132/10
f 99/132/10 100/137/10 102/138/11 101/131/11
f 101/130/11 102/139/11 104/32/12 103/31/12
f 103/42/12 104/3/12 106/2/13 105/40/13
f 105/40/13 106/2/13 108/48/14 107/38/14
f 107/38/14 108/48/14 110/45/15 109/36/15
f 109/36/15 110/45/15 112/43/16 111/34/16
f 111/34/16 112/43/16 114/5/17 113/31/17
f 113/140/17 114/19/17 116/22/18 115/141/18
f 115/141/18 116/22/18 118/24/19 117/142/19
f 119/143/20 120/26/20 82/28/1 81/129/1
f 117/142/19 118/24/19 120/26/20 119/143/20
f 83/144/21 122/145/21 121/146/21 81/147/21
f 92/148/22 132/149/22 134/150/22 94/151/22
f 105/152/21 145/153/21 143/154/21 103/155/21
f 81/147/21 121/146/21 159/156/21 119/157/21
f 87/158/21 127/159/21 125/160/21 85/161/21
f 108/162/22 148/163/22 150/164/22 110/165/22
f 103/155/21 143/154/21 141/166/21 101/167/21
f 90/168/22 130/169/22 132/149/22 92/148/22
f 119/157/21 159/156/21 157/170/21 117/171/21
f 85/161/21 125/160/21 122/145/21 83/144/21
f 106/172/22 146/173/22 148/163/22 108/162/22
f 88/174/22 128/175/22 130/169/22 90/168/22
f 101/167/21 141/166/21 139/176/21 99/177/21
f 117/171/21 157/170/21 155/178/21 115/179/21
f 104/180/22 144/181/22 146/173/22 106/172/22
f 82/182/22 124/183/22 123/184/22 84/185/22
f 120/186/22 160/187/22 124/183/22 82/182/22
f 86/188/22 126/189/22 128/175/22 88/174/22
f 99/177/21 139/176/21 137/190/21 97/191/21
f 102/192/22 142/193/22 144/181/22 104/180/22
f 115/179/21 155/178/21 153/194/21 113/195/21
f 118/196/22 158/197/22 160/187/22 120/186/22
f 97/191/21 137/190/21 135/198/21 95/199/21
f 84/185/22 123/184/22 126/189/22 86/188/22
f 100/200/22 140/201/22 142/193/22 102/192/22
f 113/195/21 153/194/21 151/202/21 111/203/21
f 116/204/22 156/205/22 158/197/22 118/196/22
f 95/199/21 135/198/21 133/206/21 93/207/21
f 98/208/22 138/209/22 140/201/22 100/200/22
f 111/203/21 151/202/21 149/210/21 109/211/21
f 114/212/22 154/213/22 156/205/22 116/204/22
f 93/207/21 133/206/21 131/214/21 91/215/21
f 109/211/21 149/210/21 147/216/21 107/217/21
f 96/218/22 136/219/22 138/209/22 98/208/22
f 91/215/21 131/214/21 129/220/21 89/221/21
f 112/222/22 152/223/22 154/213/22 114/212/22
f 94/151/22 134/150/22 136/219/22 96/218/22
f 107/217/21 147/216/21 145/153/21 105/152/21
f 110/165/22 150/164/22 152/223/22 112/222/22
f 89/221/21 129/220/21 127/159/21 87/158/21
o Cylinder
v -0.000000 -0.500000 -0.392352
v -0.000000 0.500000 -0.392352
v 0.277435 -0.500000 -0.277435
v 0.277435 0.500000 -0.277435
v 0.392352 -0.500000 0.000000
v 0.392352 0.500000 0.000000
v 0.277435 -0.500000 0.277435
v 0.277435 0.500000 0.277435
v -0.000000 -0.500000 0.392352
v -0.000000 0.500000 0.392352
v -0.277435 -0.500000 0.277435
v -0.277435 0.500000 0.277435
v -0.392352 -0.500000 -0.000000
v -0.392352 0.500000 -0.000000
v -0.277435 -0.500000 -0.277435
v -0.277435 0.500000 -0.277435
v -0.000000 -0.250000 -0.490440
v -0.000000 0.250000 -0.490440
v 0.346794 0.250000 -0.346794
v 0.346794 -0.250000 -0.346794
v 0.490440 0.250000 0.000000
v 0.490440 -0.250000 0.000000
v 0.346794 0.250000 0.346794
v 0.346794 -0.250000 0.346794
v -0.000000 0.250000 0.490440
v -0.000000 -0.250000 0.490440
v -0.346794 0.250000 0.346794
v -0.346794 -0.250000 0.346794
v -0.490440 0.250000 -0.000000
v -0.490440 -0.250000 -0.000000
v -0.346794 0.250000 -0.346794
v -0.346794 -0.250000 -0.346794
v 0.241740 0.500000 -0.241741
v -0.000000 0.500000 -0.341873
v 0.341873 0.500000 0.000000
v 0.241740 0.500000 0.241741
v -0.000000 0.500000 0.341873
v -0.241741 0.500000 0.241740
v -0.341873 0.500000 -0.000000
v -0.241741 0.500000 -0.241740
v 0.263927 0.403206 -0.263927
v -0.000000 0.403206 -0.373249
v 0.373249 0.403206 0.000000
v 0.263927 0.403206 0.263927
v -0.000000 0.403206 0.373249
v -0.263927 0.403206 0.263927
v -0.373249 0.403206 -0.000000
v -0.263927 0.403206 -0.263927
vt 0.930630 0.596923
vt 0.903961 0.785847
vt 0.690614 0.785847
vt 0.663946 0.596923
vt 0.837600 0.642480
vt 0.810931 0.831405
vt 0.597584 0.831404
vt 0.570916 0.642479
vt 0.852657 0.588488
vt 0.825988 0.777413
vt 0.612641 0.777413
vt 0.585973 0.588488
vt 0.896457 0.618924
vt 0.869789 0.807848
vt 0.656442 0.807848
vt 0.629773 0.618924
vt 0.913215 0.631296
vt 0.886547 0.820221
vt 0.673200 0.820221
vt 0.646531 0.631297
vt 0.981429 0.569146
vt 0.954760 0.758070
vt 0.741413 0.758070
vt 0.714745 0.569146
vt 0.439400 0.473657
vt 0.251623 0.515211
vt 0.257249 0.483375
vt 0.420867 0.447167
vt 0.871093 0.581683
vt 0.844425 0.770607
vt 0.631078 0.770608
vt 0.604410 0.581683
vt 0.972290 0.640387
vt 0.945621 0.829311
vt 0.732274 0.829311
vt 0.705606 0.640387
vt 0.519223 0.390484
vt 0.383232 0.526475
vt 0.190912 0.526475
vt 0.054920 0.390484
vt 0.054921 0.198163
vt 0.190912 0.062172
vt 0.383232 0.062172
vt 0.519223 0.198163
vt 0.945621 0.096232
vt 0.972290 0.285156
vt 0.705606 0.285156
vt 0.732274 0.096232
vt 0.844424 0.037527
vt 0.871093 0.226452
vt 0.604409 0.226452
vt 0.631077 0.037528
vt 0.954760 0.024990
vt 0.981429 0.213915
vt 0.714745 0.213915
vt 0.741413 0.024990
vt 0.886547 0.087141
vt 0.913215 0.276065
vt 0.646531 0.276065
vt 0.673200 0.087141
vt 0.869789 0.074768
vt 0.896457 0.263693
vt 0.629773 0.263693
vt 0.656442 0.074768
vt 0.825989 0.044333
vt 0.852657 0.233257
vt 0.585973 0.233257
vt 0.612642 0.044333
vt 0.810935 0.098325
vt 0.837602 0.287249
vt 0.570918 0.287248
vt 0.597588 0.098324
vt 0.903961 0.052767
vt 0.930630 0.241691
vt 0.663946 0.241691
vt 0.690614 0.052767
vt 0.438134 0.231152
vt 0.355026 0.155238
vt 0.373269 0.105152
vt 0.485683 0.206580
vt 0.089461 0.411815
vt 0.115950 0.393282
vt 0.047907 0.224038
vt 0.079743 0.229664
vt 0.151302 0.061876
vt 0.169836 0.088365
vt 0.339080 0.020322
vt 0.333454 0.052157
vt 0.501242 0.123717
vt 0.474752 0.142250
vt 0.542796 0.311495
vt 0.510960 0.305869
vt 0.227707 0.059744
vt 0.408686 0.086572
vt 0.517687 0.233514
vt 0.490859 0.414493
vt 0.343918 0.523495
vt 0.162938 0.496667
vt 0.053937 0.349725
vt 0.080765 0.168746
vt 0.242612 0.147948
vt 0.220790 0.099025
vt 0.163304 0.224527
vt 0.112626 0.206786
vt 0.163657 0.336327
vt 0.115210 0.360035
vt 0.243698 0.416627
vt 0.225577 0.467594
vt 0.357072 0.418642
vt 0.379772 0.467594
vt 0.437910 0.341377
vt 0.488518 0.359327
vn 0.359800 0.340800 -0.868600
vn 0.868600 0.340800 -0.359800
vn 0.868600 0.340800 0.359800
vn 0.359800 0.340800 0.868600
vn -0.359800 0.340800 0.868600
vn -0.868600 0.340800 0.359800
vn 0.000000 1.000000 0.000000
vn -0.359800 0.340800 -0.868600
vn -0.868600 0.340800 -0.359800
vn 0.000000 -1.000000 0.000000
vn -0.868600 -0.340800 -0.359800
vn -0.923900 0.000000 -0.382700
vn -0.359800 -0.340800 -0.868600
vn -0.382700 0.000000 -0.923900
vn -0.868600 -0.340800 0.359800
vn -0.923900 0.000000 0.382700
vn -0.359800 -0.340800 0.868600
vn -0.382700 0.000000 0.923900
vn 0.359800 -0.340800 0.868600
vn 0.382700 0.000000 0.923900
vn 0.868600 -0.340800 0.359800
vn 0.923900 0.000000 0.382700
vn 0.868600 -0.340800 -0.359800
vn 0.923900 0.000000 -0.382700
vn 0.359800 -0.340800 -0.868600
vn 0.382700 0.000000 -0.923900
vn 0.366600 -0.286900 0.885000
vn 0.885000 -0.286900 0.366600
vn 0.885000 -0.286900 -0.366600
vn 0.366600 -0.286900 -0.885000
vn -0.366600 -0.286900 -0.885000
vn -0.885000 -0.286900 -0.366600
vn -0.885000 -0.286900 0.366600
vn -0.366600 -0.286900 0.885000
usemtl Material.001
s off
f 178/224/23 162/225/23 164/226/23 179/227/23
f 179/228/24 164/229/24 166/230/24 181/231/24
f 181/232/25 166/233/25 168/234/25 183/235/25
f 183/236/26 168/237/26 170/238/26 185/239/26
f 185/240/27 170/241/27 172/242/27 187/243/27
f 187/244/28 172/245/28 174/246/28 189/247/28
f 162/248/29 176/249/29 200/250/29 194/251/29
f 191/252/30 176/253/30 162/254/30 178/255/30
f 189/256/31 174/257/31 176/258/31 191/259/31
f 161/260/32 163/261/32 165/262/32 167/263/32 169/264/32 171/265/32 173/266/32 175/267/32
f 173/268/33 190/269/33 192/270/33 175/271/33
f 190/269/34 189/256/34 191/259/34 192/270/34
f 175/272/35 192/273/35 177/274/35 161/275/35
f 192/273/36 191/252/36 178/255/36 177/274/36
f 171/276/37 188/277/37 190/278/37 173/279/37
f 188/277/38 187/244/38 189/247/38 190/278/38
f 169/280/39 186/281/39 188/282/39 171/283/39
f 186/281/40 185/240/40 187/243/40 188/282/40
f 167/284/41 184/285/41 186/286/41 169/287/41
f 184/285/42 183/236/42 185/239/42 186/286/42
f 165/288/43 182/289/43 184/290/43 167/291/43
f 182/289/44 181/232/44 183/235/44 184/290/44
f 163/292/45 180/293/45 182/294/45 165/295/45
f 180/293/46 179/228/46 181/231/46 182/294/46
f 161/296/47 177/297/47 180/298/47 163/299/47
f 177/297/48 178/224/48 179/227/48 180/298/48
f 194/300/49 200/301/49 208/302/49 202/303/49
f 176/249/29 174/304/29 199/305/29 200/250/29
f 174/304/29 172/306/29 198/307/29 199/305/29
f 172/306/29 170/308/29 197/309/29 198/307/29
f 170/308/29 168/310/29 196/311/29 197/309/29
f 168/310/29 166/312/29 195/313/29 196/311/29
f 166/312/29 164/314/29 193/315/29 195/313/29
f 164/314/29 162/248/29 194/251/29 193/315/29
f 201/316/29 202/317/29 208/318/29 207/319/29 206/320/29 205/321/29 204/322/29 203/323/29
f 200/301/50 199/324/50 207/325/50 208/302/50
f 199/324/51 198/326/51 206/327/51 207/325/51
f 198/326/52 197/328/52 205/329/52 206/327/52
f 197/328/53 196/330/53 204/331/53 205/329/53
f 196/330/54 195/332/54 203/333/54 204/331/54
f 195/332/55 193/334/55 201/335/55 203/333/55
f 193/334/56 194/300/56 202/303/56 201/335/56
