# Blender v2.74 (sub 2) OBJ File: ''
# www.blender.org
mtllib spigot.mtl
o Cube.001
v 0.307936 -0.492564 0.308081
v -0.308226 -0.492564 0.308081
v -0.308226 -0.492564 -0.308081
v 0.307936 -0.492564 -0.308081
v -0.308226 -0.398667 0.308081
v -0.308226 -0.398667 -0.308081
v 0.307936 -0.398668 -0.308081
v -0.048586 -0.398667 -0.048442
v 0.048297 -0.398667 -0.048442
v 0.307936 -0.398668 0.308081
v -0.048586 0.192762 -0.188080
v 0.048297 0.192762 -0.188080
v 0.048297 -0.398667 0.048442
v -0.048586 -0.398667 0.048442
v -0.048586 0.192762 -0.091197
v 0.048297 0.192762 -0.091197
v 0.048297 0.075353 -0.160359
v 0.048297 0.075353 -0.063476
v -0.048586 0.075353 -0.063476
v -0.048586 0.075353 -0.160359
v 0.048297 0.026619 -0.148853
v 0.048297 0.057857 -0.004072
v -0.048586 0.057857 -0.004072
v -0.048586 0.026619 -0.148853
v 0.048297 -0.032571 -0.134878
v 0.048297 -0.032571 -0.037995
v -0.048586 -0.032571 -0.037995
v -0.048586 -0.032571 -0.134878
vn 0.000000 -1.000000 0.000000
vn -1.000000 0.000000 0.000000
vn 0.000000 1.000000 -0.000000
vn 1.000000 0.000000 0.000000
vn -0.000000 0.000000 -1.000000
vn -0.000000 0.000000 1.000000
vn 0.000000 -0.229800 -0.973200
vn 0.000000 0.687600 0.726100
vn 0.000000 0.229800 0.973200
vn 0.000000 0.446400 0.894800
vn 0.000000 -0.063500 0.998000
usemtl None
s 1
f 1//1 2//1 3//1 4//1
f 2//2 5//2 6//2 3//2
f 7//3 6//3 8//3 9//3
f 10//4 1//4 4//4 7//4
f 4//5 3//5 6//5 7//5
f 10//6 5//6 2//6 1//6
f 17//7 20//7 11//7 12//7
f 10//3 7//3 9//3 13//3
f 5//3 10//3 13//3 14//3
f 6//3 5//3 14//3 8//3
f 15//3 16//3 12//3 11//3
f 18//4 17//4 12//4 16//4
f 19//8 18//8 16//9 15//9
f 20//2 19//2 15//2 11//2
f 24//2 23//2 19//2 20//2
f 23//10 22//10 18//8 19//8
f 22//4 21//4 17//4 18//4
f 21//7 24//7 20//7 17//7
f 25//7 28//7 24//7 21//7
f 26//4 25//4 21//4 22//4
f 27//11 26//11 22//10 23//10
f 28//2 27//2 23//2 24//2
f 8//2 14//2 27//2 28//2
f 14//9 13//9 26//11 27//11
f 13//4 9//4 25//4 26//4
f 9//7 8//7 28//7 25//7
